<svg xmlns="http://www.w3.org/2000/svg" width="32.505" height="32.504" viewBox="0 0 32.505 32.504"><g transform="translate(-138.039 -3313.462)"><path d="M21.717,21.836l.7-4.554H18.047V14.328a2.277,2.277,0,0,1,2.567-2.461H22.6V7.991a24.286,24.286,0,0,0-3.526-.307c-3.6,0-5.95,2.181-5.95,6.128v3.47h-4v4.554h4V32.843a15.89,15.89,0,0,0,4.922,0V21.836Z" transform="translate(138.706 3312.431)" fill="#fff"/><path d="M32.005,17.725A15.753,15.753,0,1,1,16.253,1.973,15.752,15.752,0,0,1,32.005,17.725Z" transform="translate(138.039 3311.989)" fill="none" stroke="#fff" stroke-miterlimit="10" stroke-width="1"/></g></svg>