<svg xmlns="http://www.w3.org/2000/svg" width="32.505" height="32.504" viewBox="0 0 32.505 32.504"><g transform="translate(-266.583 -3314.255)"><path d="M151.32,18.461A15.753,15.753,0,1,1,135.568,2.709,15.752,15.752,0,0,1,151.32,18.461Z" transform="translate(147.268 3312.046)" fill="none" stroke="#fff" stroke-miterlimit="10" stroke-width="1"/><path d="M139.053,11.8a1.083,1.083,0,1,0,1.083,1.083,1.083,1.083,0,0,0-1.083-1.083" transform="translate(148.672 3312.749)" fill="#fff"/><path d="M134.834,13.088a4.549,4.549,0,1,0,4.549,4.549,4.554,4.554,0,0,0-4.549-4.549m0,7.462a2.914,2.914,0,1,1,2.913-2.913,2.916,2.916,0,0,1-2.913,2.913" transform="translate(148.078 3312.849)" fill="#fff"/><path d="M138.786,27.208h-7.373a5.554,5.554,0,0,1-5.547-5.548V14.285a5.554,5.554,0,0,1,5.547-5.547h7.373a5.554,5.554,0,0,1,5.548,5.547V21.66a5.554,5.554,0,0,1-5.548,5.548m-7.373-16.732a3.814,3.814,0,0,0-3.811,3.81V21.66a3.815,3.815,0,0,0,3.811,3.811h7.373A3.815,3.815,0,0,0,142.6,21.66V14.285a3.814,3.814,0,0,0-3.811-3.81Z" transform="translate(147.736 3312.512)" fill="#fff"/></g></svg>