<svg xmlns="http://www.w3.org/2000/svg" width="32.505" height="32.504" viewBox="0 0 32.505 32.504"><g transform="translate(-223.735 -3311.875)"><path d="M111.548,16.252A15.753,15.753,0,1,1,95.8.5,15.752,15.752,0,0,1,111.548,16.252Z" transform="translate(144.192 3311.875)" fill="none" stroke="#fff" stroke-miterlimit="10" stroke-width="1"/><path d="M88.55,12.748H91.6v9.8H88.55Zm1.526-4.87a1.766,1.766,0,1,1-1.769,1.765,1.766,1.766,0,0,1,1.769-1.765" transform="translate(144.831 3312.446)" fill="#fff"/><path d="M93.139,12.415h2.922v1.34h.04a3.2,3.2,0,0,1,2.885-1.583c3.084,0,3.653,2.029,3.653,4.668v5.375H99.594V17.451c0-1.138-.023-2.6-1.584-2.6-1.585,0-1.827,1.238-1.827,2.516v4.848H93.139Z" transform="translate(145.204 3312.778)" fill="#fff"/></g></svg>