<?xml version="1.0" encoding="utf-8"?>
<!-- Generator: Adobe Illustrator 27.5.0, SVG Export Plug-In . SVG Version: 6.00 Build 0)  -->
<svg version="1.1" xmlns="http://www.w3.org/2000/svg" xmlns:xlink="http://www.w3.org/1999/xlink" x="0px" y="0px"
	 viewBox="0 0 1122 1122" style="enable-background:new 0 0 1122 1122;" xml:space="preserve">
<g id="Bg">
	<rect style="fill:#FFFFFF;" width="1122" height="1122"/>
</g>
<g id="Object">
	<g>
		<path style="fill:#616E7D;" d="M807.308,849.019L896,576.418l-61.073-19.866V338.981H272v286.667h16.025L272,674.876
			L807.308,849.019z M847.672,649.516l3.715,1.209l-36.584,112.451l-3.714-1.212c-6.337-2.059-12.759-3.037-19.063-3.037
			c-25.946,0-50.073,16.526-58.531,42.538l-1.219,3.722L358.69,683.639l1.212-3.715c2.061-6.343,3.037-12.759,3.037-19.069
			c0-12.722-4.025-24.99-11.151-35.207h9.116h106.214h20.294h71.211c3.182,2.349,6.745,4.562,10.77,6.597l-8.668,26.647
			c-5.678-4.361-10.375-10.548-14.089-18.614c-0.718-2.052-2.128-3.406-4.215-4.081c-1.147-0.379-3.696-0.122-3.696-0.122h-0.053
			l-13.766,3.026c-2.352,0.505-3.814,1.71-4.38,3.594c-0.389,1.228-0.283,2.463,0.27,3.735c1.66,5.174,4.38,10.513,8.181,16.006
			c6.132,8.958,14.096,15.874,23.825,20.841l-3.425,10.522c-1.113,3.412,0.751,7.077,4.176,8.184l11.336,3.692
			c3.412,1.113,7.088-0.755,8.188-4.16l3.425-10.542c9.525,1.601,18.358,1.327,26.499-0.88
			c12.844-3.557,21.407-11.395,25.649-23.607c2.635-7.625,2.635-14.83-0.052-21.618c-2.938-7.284-8.339-13.635-15.822-19.22h67.819
			h20.294h105.957h9.11C823.354,636.504,834.209,645.139,847.672,649.516z M584.567,666.191l7.601-23.377
			c5.5,3.926,7.43,8.491,5.704,13.734c-1.634,4.861-5.105,7.914-10.394,9.162C586.556,665.947,585.555,666.088,584.567,666.191z
			 M291.556,423.188h3.906c17.007,0,32.374-6.883,43.533-18.028c11.151-11.158,18.021-26.526,18.035-43.543v-3.909h388.948h3.919
			v3.909c0,17.017,6.89,32.384,18.035,43.543c11.145,11.145,26.512,18.028,43.533,18.028h3.906v118.251h-3.906
			c-17.02,0-32.387,6.886-43.533,18.035c-11.145,11.151-18.035,26.522-18.035,43.536v3.909H357.03v-3.909
			c-0.013-17.014-6.883-32.385-18.035-43.536c-11.158-11.148-26.525-18.035-43.533-18.035h-3.906V423.188z"/>
		<path style="fill:#82BFAB;" d="M727.567,795.432c10.566-27.151,36.479-44.323,64.459-44.32c5.862,0,11.784,0.952,17.66,2.503
			l31.953-98.174c-15.17-5.902-27.138-16.572-34.798-29.792H700.884c0,11.978-1.798,24.158-5.704,36.172
			c-16.065,49.385-61.89,80.771-111.167,80.771c-11.988,0-24.16-1.854-36.181-5.764c-49.395-16.072-80.722-61.91-80.716-111.18
			H360.902c6.231,10.565,9.848,22.646,9.848,35.207c0,5.859-0.942,11.791-2.503,17.673L727.567,795.432z"/>
		<path style="fill:#FFFFFF;" d="M358.69,683.639l373.587,121.547l1.219-3.722c8.458-26.011,32.585-42.538,58.531-42.538
			c6.304,0,12.726,0.978,19.063,3.037l3.714,1.212l36.584-112.451l-3.715-1.209c-13.464-4.377-24.319-13.012-31.722-23.868h-9.11
			c7.66,13.22,19.628,23.891,34.798,29.792l-31.953,98.174c-5.876-1.551-11.798-2.503-17.66-2.503
			c-27.981-0.003-53.893,17.169-64.459,44.32l-359.32-116.904c1.561-5.882,2.503-11.814,2.503-17.673
			c0-12.561-3.617-24.641-9.848-35.207h-9.116c7.127,10.217,11.151,22.484,11.151,35.207c0,6.311-0.975,12.726-3.037,19.069
			L358.69,683.639z"/>
		<path style="fill:#AAD4C8;" d="M584.567,666.191c0.988-0.103,1.989-0.244,2.911-0.481c5.289-1.249,8.76-4.301,10.394-9.162
			c1.726-5.244-0.204-9.808-5.704-13.734L584.567,666.191z"/>
		<path style="fill:#AAD4C8;" d="M524.903,639.102l13.766-3.026h0.053c0,0,2.549-0.257,3.696,0.122
			c2.088,0.675,3.497,2.029,4.215,4.081c3.715,8.066,8.411,14.253,14.089,18.614l8.668-26.647c-4.025-2.035-7.588-4.248-10.77-6.597
			H487.41c0.033,40.694,25.946,78.631,66.699,91.887c9.735,3.165,19.786,4.765,29.904,4.765c41.958,0,78.885-26.825,91.868-66.758
			c3.234-9.923,4.709-19.987,4.709-29.894h-67.819c7.483,5.586,12.884,11.936,15.822,19.22c2.688,6.788,2.688,13.994,0.052,21.618
			c-4.242,12.213-12.805,20.051-25.649,23.607c-8.141,2.207-16.974,2.48-26.499,0.88l-3.425,10.542
			c-1.1,3.405-4.776,5.273-8.188,4.16l-11.336-3.692c-3.425-1.107-5.289-4.772-4.176-8.184l3.425-10.522
			c-9.729-4.967-17.692-11.883-23.825-20.841c-3.801-5.493-6.521-10.832-8.181-16.006c-0.553-1.271-0.659-2.506-0.27-3.735
			C521.089,640.812,522.551,639.606,524.903,639.102z"/>
		<path style="fill:#FFFFFF;" d="M584.013,722.301c-10.117,0-20.169-1.601-29.904-4.765c-40.753-13.257-66.666-51.194-66.699-91.887
			h-20.294c-0.007,49.27,31.32,95.108,80.716,111.18c12.021,3.909,24.193,5.764,36.181,5.764c49.277,0,95.102-31.386,111.167-80.771
			c3.906-12.014,5.704-24.193,5.704-36.172H680.59c0,9.907-1.475,19.972-4.709,29.894
			C662.898,695.476,625.971,722.301,584.013,722.301z"/>
		<path style="fill:#82BFAB;" d="M550.914,365.526H364.631c-1.95,35.194-30.07,63.32-65.263,65.282v103.012
			c35.193,1.963,63.313,30.092,65.263,65.282h186.283c-63.385-1.371-114.381-53.083-114.381-116.792
			C436.533,418.607,487.529,366.896,550.914,365.526z"/>
		<path style="fill:#82BFAB;" d="M556.019,599.104h186.257c1.963-35.19,30.076-63.32,65.282-65.282V430.809
			c-35.207-1.963-63.32-30.089-65.282-65.282H556.019c63.365,1.37,114.348,53.08,114.348,116.785
			C670.367,546.02,619.385,597.733,556.019,599.104z"/>
		<path style="fill:#FFFFFF;" d="M749.897,606.919v-3.909c0-17.014,6.89-32.385,18.035-43.536
			c11.145-11.148,26.512-18.035,43.533-18.035h3.906V423.188h-3.906c-17.02,0-32.387-6.883-43.533-18.028
			c-11.145-11.158-18.035-26.526-18.035-43.543v-3.909h-3.919H357.03v3.909c-0.013,17.017-6.883,32.384-18.035,43.543
			c-11.158,11.145-26.525,18.028-43.533,18.028h-3.906v118.251h3.906c17.007,0,32.374,6.886,43.533,18.035
			c11.151,11.151,18.021,26.522,18.035,43.536v3.909H749.897z M742.276,365.526c1.963,35.194,30.076,63.32,65.282,65.282v103.012
			c-35.207,1.963-63.32,30.092-65.282,65.282H556.019c63.365-1.371,114.348-53.083,114.348-116.792
			c0-63.705-50.982-115.415-114.348-116.785H742.276z M650.093,482.311c0,53.282-43.348,96.63-96.63,96.63
			c-53.274,0-96.642-43.348-96.642-96.63c0-53.274,43.368-96.623,96.642-96.623C606.745,385.688,650.093,429.037,650.093,482.311z
			 M299.368,533.821V430.809c35.193-1.963,63.313-30.089,65.263-65.282h186.283c-63.385,1.37-114.381,53.08-114.381,116.785
			c0,63.709,50.996,115.422,114.381,116.792H364.631C362.681,563.913,334.561,535.784,299.368,533.821z"/>
		<path style="fill:#AAD4C8;" d="M533.755,456.622c0.033,4.782,2.668,8.175,7.858,10.171v-19.899l-0.915,0.352
			C536.035,449.483,533.735,452.604,533.755,456.622z"/>
		<path style="fill:#AAD4C8;" d="M566.545,520.7c0.909-0.408,1.805-0.849,2.615-1.367c4.651-2.822,6.995-6.798,7.048-11.926
			c0.033-5.526-3.221-9.274-9.663-11.296V520.7z"/>
		<path style="fill:#AAD4C8;" d="M553.463,385.688c-53.274,0-96.642,43.349-96.642,96.623c0,53.282,43.368,96.63,96.642,96.63
			c53.282,0,96.63-43.348,96.63-96.63C650.093,429.037,606.745,385.688,553.463,385.688z M591.469,537.717
			c-7.061,4.621-15.38,7.614-24.925,9.034v11.085c0,3.59-2.911,6.495-6.508,6.495h-11.916c-3.596,0-6.508-2.905-6.508-6.495v-11.066
			c-10.789-1.719-20.492-5.833-29.094-12.456c-5.309-4.038-9.577-8.276-12.726-12.683c-0.922-1.041-1.41-2.177-1.423-3.468
			c-0.033-1.963,0.975-3.57,3.049-4.769l12.16-7.137l0.033-0.016c0,0,2.365-1.037,3.583-1.037c2.187,0,3.939,0.856,5.256,2.572
			c6.027,6.531,12.409,10.967,19.161,13.352v-28.024c-15.637-2.407-26.94-8.266-33.929-17.617c-4.143-5.49-6.284-11.81-6.415-18.944
			c-0.277-14.494,7.601-25.438,23.634-32.737c4.966-2.276,10.539-3.833,16.711-4.69v-12.311c0-3.596,2.912-6.511,6.508-6.511h11.916
			c3.596,0,6.508,2.915,6.508,6.511v12.634c13.121,2.285,23.877,8.171,32.21,17.652c1.186,1.077,1.772,2.339,1.752,3.775
			c-0.033,1.795-0.975,3.267-2.793,4.42l-13.371,8.385l-0.033,0.02c0,0-2.351,1.186-4.064,1.179
			c-2.121-0.007-3.965-0.685-5.573-2.015c-2.608-2.266-5.316-4.032-8.128-5.352v22.445c15.967,2.233,27.731,7.858,35.266,16.846
			c4.657,5.619,6.89,12.482,6.732,20.541C608.286,520.262,602.582,530.367,591.469,537.717z"/>
		<path style="fill:#616E7D;" d="M548.122,564.331h11.916c3.596,0,6.508-2.905,6.508-6.495v-11.085
			c9.544-1.42,17.863-4.413,24.925-9.034c11.112-7.351,16.816-17.455,17.073-30.382c0.158-8.059-2.075-14.923-6.732-20.541
			c-7.535-8.988-19.299-14.613-35.266-16.846v-22.445c2.813,1.321,5.52,3.086,8.128,5.352c1.607,1.33,3.451,2.009,5.573,2.015
			c1.713,0.007,4.064-1.179,4.064-1.179l0.033-0.02l13.371-8.385c1.818-1.153,2.76-2.625,2.793-4.42
			c0.019-1.436-0.567-2.697-1.752-3.775c-8.333-9.481-19.089-15.367-32.21-17.652v-12.634c0-3.596-2.911-6.511-6.508-6.511h-11.916
			c-3.596,0-6.508,2.915-6.508,6.511v12.311c-6.172,0.857-11.744,2.414-16.711,4.69c-16.033,7.298-23.91,18.242-23.634,32.737
			c0.132,7.134,2.272,13.454,6.415,18.944c6.989,9.35,18.292,15.209,33.929,17.617v28.024c-6.752-2.384-13.135-6.82-19.161-13.352
			c-1.317-1.716-3.07-2.572-5.256-2.572c-1.219,0-3.583,1.037-3.583,1.037l-0.033,0.016l-12.16,7.137
			c-2.075,1.199-3.082,2.807-3.049,4.769c0.013,1.291,0.501,2.427,1.423,3.468c3.148,4.407,7.417,8.646,12.726,12.683
			c8.603,6.623,18.305,10.737,29.094,12.456v11.066C541.613,561.426,544.525,564.331,548.122,564.331z M566.545,496.111
			c6.442,2.022,9.696,5.77,9.663,11.296c-0.053,5.128-2.397,9.104-7.048,11.926c-0.81,0.517-1.706,0.958-2.615,1.367V496.111z
			 M533.755,456.622c-0.02-4.018,2.279-7.139,6.943-9.376l0.915-0.352v19.899C536.423,464.797,533.789,461.405,533.755,456.622z"/>
	</g>
</g>
</svg>
