<svg xmlns="http://www.w3.org/2000/svg" width="32.505" height="32.504" viewBox="0 0 32.505 32.504"><g transform="translate(-180.886 -3315.048)"><path d="M71.776,19.2A15.753,15.753,0,1,1,56.024,3.445,15.752,15.752,0,0,1,71.776,19.2Z" transform="translate(141.115 3312.103)" fill="none" stroke="#fff" stroke-miterlimit="10" stroke-width="1"/><path d="M64.2,13.178a7.108,7.108,0,0,1-1.738.5c.279-.047.69-.553.854-.757a3.238,3.238,0,0,0,.577-1.051c.014-.03.026-.068,0-.09a.1.1,0,0,0-.094.008,8.828,8.828,0,0,1-2.059.789.138.138,0,0,1-.141-.038,1.728,1.728,0,0,0-.181-.184,3.669,3.669,0,0,0-1-.612,3.467,3.467,0,0,0-1.529-.246,3.641,3.641,0,0,0-1.452.409,3.744,3.744,0,0,0-1.172.957,3.6,3.6,0,0,0-.7,1.4,3.777,3.777,0,0,0-.037,1.479c.01.082,0,.094-.072.082a11,11,0,0,1-7.078-3.6c-.083-.094-.127-.094-.2.008a3.589,3.589,0,0,0,.612,4.24c.138.131.282.263.435.384a3.614,3.614,0,0,1-1.366-.384c-.083-.052-.124-.022-.131.072a2.1,2.1,0,0,0,.023.405,3.627,3.627,0,0,0,2.238,2.894,2.135,2.135,0,0,0,.452.139,4.069,4.069,0,0,1-1.339.041c-.1-.018-.135.03-.1.124A3.769,3.769,0,0,0,51.822,22.5c.129.023.256.023.385.052-.008.012-.015.012-.023.023a4.458,4.458,0,0,1-1.922,1.019,6.884,6.884,0,0,1-2.92.374c-.157-.024-.191-.022-.234,0s0,.064.046.1c.2.131.4.248.608.361a9.642,9.642,0,0,0,1.952.78A10.392,10.392,0,0,0,59.8,22.85,10.59,10.59,0,0,0,62.6,15.126c0-.111.13-.172.209-.232a6.765,6.765,0,0,0,1.373-1.427.431.431,0,0,0,.09-.274v-.015c0-.045,0-.031-.069,0" transform="translate(141.643 3312.725)" fill="#fff"/></g></svg>