<svg xmlns="http://www.w3.org/2000/svg" width="32.505" height="32.504" viewBox="0 0 32.505 32.504"><g transform="translate(-309.43 -3312.669)"><path d="M191.091,16.989A15.753,15.753,0,1,1,175.339,1.237,15.752,15.752,0,0,1,191.091,16.989Z" transform="translate(150.344 3311.932)" fill="none" stroke="#fff" stroke-miterlimit="10" stroke-width="1"/><path d="M183.274,14a3.783,3.783,0,0,0-3.783-3.783h-9.672A3.783,3.783,0,0,0,166.036,14v4.5a3.783,3.783,0,0,0,3.783,3.783h9.672a3.783,3.783,0,0,0,3.783-3.783Zm-5.688,2.588-4.337,2.146c-.17.092-.748-.031-.748-.225v-4.4c0-.2.583-.319.753-.222l4.151,2.259c.175.1.357.35.181.446" transform="translate(150.843 3312.627)" fill="#fff"/></g></svg>